PathFileType	4	(X/Y/Z)	E:\Qualisys_Data\Carbon_Farble_Plate\Data\Amateur_Runner\S2\T2\S2T2V11_c3d.trc
DataRate	CameraRate	NumFrames	NumMarkers	Units	OrigDataRate	OrigDataStartFrame	OrigNumFrames
200.000000	200.000000	4	39	mm	200.000000	0	326
Frame#	Time	LSHO			RSHO			LICST			RICST			LASIS			LHEEL			RASIS			LTROC			RTROC			SACR			LTH1			LSK4			LTH2			LTH3			RHM5			LSK2			LTH4			RTH1			LTOE			RTH2			RTH3			RTH4			LLEP			RLEP			LSK1			LSK3			RSK1			LHM5			RSK2			LFT1			RSK3			RSK4			LLME			RLME			RTOE			RHEEL			RFT1			RFT2			LFT2			
		X1	Y1	Z1	X2	Y2	Z2	X3	Y3	Z3	X4	Y4	Z4	X5	Y5	Z5	X6	Y6	Z6	X7	Y7	Z7	X8	Y8	Z8	X9	Y9	Z9	X10	Y10	Z10	X11	Y11	Z11	X12	Y12	Z12	X13	Y13	Z13	X14	Y14	Z14	X15	Y15	Z15	X16	Y16	Z16	X17	Y17	Z17	X18	Y18	Z18	X19	Y19	Z19	X20	Y20	Z20	X21	Y21	Z21	X22	Y22	Z22	X23	Y23	Z23	X24	Y24	Z24	X25	Y25	Z25	X26	Y26	Z26	X27	Y27	Z27	X28	Y28	Z28	X29	Y29	Z29	X30	Y30	Z30	X31	Y31	Z31	X32	Y32	Z32	X33	Y33	Z33	X34	Y34	Z34	X35	Y35	Z35	X36	Y36	Z36	X37	Y37	Z37	X38	Y38	Z38	X39	Y39	Z39	

1	0	-2735.93994140625	1535.377319335938	-515.935302734375	-2783.99755859375	1515.790405273438	-218.3292083740234	-2781.296875	1062.938232421875	-511.8035888671875	-2774.800048828125	1059.576538085938	-215.5728912353516	-2732.257568359375	1008.900329589844	-498.8553771972656	-3262.265625	355.0441284179688	-403.7344360351562	-2717.685546875	1010.460571289062	-243.8476104736328	-2879.686767578125	961.435302734375	-512.6541137695312	-2846.998291015625	954.3541259765625	-197.713134765625	-2876.3837890625	1104.746215820312	-366.5822448730469	-2843.746826171875	717.7356567382812	-518.0874633789062	-3152.445556640625	459.3024291992188	-491.4386901855469	-2922.360107421875	746.539794921875	-516.7474365234375	-2879.035400390625	622.2794189453125	-500.9735717773438	-2517.750244140625	139.4154205322266	-214.4781036376953	-3082.80419921875	529.009521484375	-504.6276550292969	-2957.70751953125	654.6143188476562	-492.9252319335938	-2658.331298828125	726.3255615234375	-207.0088195800781	-3224.15283203125	108.6676635742188	-427.5383911132812	-2731.4384765625	705.411865234375	-203.0080871582031	-2631.69287109375	630.91162109375	-226.9557342529297	-2707.572998046875	612.2589111328125	-219.5438537597656	-2952.753173828125	585.8231201171875	-497.2814636230469	-2669.965576171875	570.5791625976562	-222.6429138183594	-3027.830322265625	473.6566162109375	-505.3375244140625	-3098.62548828125	402.5373840332031	-498.4676818847656	-2630.042236328125	451.3022766113281	-214.8400726318359	-3267.71240234375	157.1484375	-475.2652587890625	-2709.379638671875	444.3353271484375	-210.1265411376953	-3278.27490234375	340.0263366699219	-374.5685424804688	-2621.082763671875	350.2440795898438	-224.5209197998047	-2700.586669921875	347.4621276855469	-223.1612548828125	-3250.016357421875	299.7461853027344	-466.7952575683594	-2637.349365234375	155.8247833251953	-254.0996398925781	-2450.0751953125	185.7489929199219	-262.84912109375	-2687.40771484375	125.7565078735352	-317.4176940917969	-2659.077880859375	106.1376571655273	-346.1902770996094	-2677.00341796875	94.56220245361328	-292.9466552734375	-3300.040771484375	343.7250061035156	-426.0778503417969
2	0.005	-2718.615478515625	1534.333862304688	-514.4288940429688	-2767.645751953125	1514.769409179688	-217.8302307128906	-2764.62158203125	1062.74609375	-511.5502014160156	-2758.369873046875	1057.7724609375	-215.1441345214844	-2715.626220703125	1008.823120117188	-498.5636596679688	-3250.796630859375	360.7767028808594	-403.9260559082031	-2701.221435546875	1009.409851074219	-243.8464813232422	-2862.62744140625	960.4524536132812	-513.8682250976562	-2831.0224609375	951.7994384765624	-198.2666168212891	-2859.68359375	1103.433837890625	-366.3309936523438	-2824.58251953125	716.5308227539062	-517.6310424804688	-3137.173095703125	463.2920227050781	-492.4803771972656	-2903.012939453125	744.5233154296875	-517.6280517578125	-2859.7099609375	621.092529296875	-500.8972473144531	-2493.09375	141.4180145263672	-215.0001068115234	-3065.1923828125	531.1390380859375	-505.8535461425781	-2938.03173828125	652.7269897460938	-493.6977844238281	-2642.945556640625	723.1719970703125	-206.1991577148438	-3213.494384765625	114.6601791381836	-430.9341735839844	-2716.8857421875	702.0714111328125	-202.600341796875	-2617.5185546875	626.5100708007812	-226.8463897705078	-2694.184814453125	608.8711547851562	-219.9742584228516	-2933.8818359375	584.5073852539062	-498.4468994140625	-2655.49072265625	568.004150390625	-222.3101043701172	-3012.031494140625	473.9469604492188	-506.4698791503906	-3084.9248046875	405.11279296875	-499.1225280761719	-2612.539794921875	450.211669921875	-215.3098602294922	-3257.230224609375	163.9212799072266	-477.0819702148438	-2692.9736328125	441.7740478515625	-210.6028747558594	-3266.9306640625	344.8857116699219	-374.3608703613281	-2601.274169921875	348.7577209472656	-225.2684783935547	-2680.907470703125	344.2782592773438	-223.6814575195312	-3238.60888671875	305.3099365234375	-466.6592407226562	-2613.28369140625	154.6080932617188	-255.7591247558594	-2427.7177734375	189.9849700927734	-263.5353088378906	-2662.585205078125	122.8131484985352	-318.6499328613281	-2633.28955078125	103.9838104248047	-347.7424621582031	-2651.43017578125	92.21175384521484	-294.5617065429688	-3288.140380859375	349.2793579101562	-425.9014282226562
3	0.01	-2702.117431640625	1534.009887695312	-514.0675659179688	-2751.96875	1513.684814453125	-217.4405517578125	-2747.736083984375	1062.336303710938	-511.4407653808594	-2741.657958984375	1056.104248046875	-215.3904418945312	-2699.029296875	1008.176513671875	-498.3627624511719	-3238.455078125	366.2477111816406	-403.7725830078125	-2684.099609375	1007.947021484375	-244.593994140625	-2845.528564453125	959.0946044921876	-515.0497436523438	-2814.77734375	949.1034545898438	-198.9855804443359	-2843.19189453125	1102.053833007812	-365.9097595214844	-2804.738037109375	714.5453491210938	-516.7266845703125	-3121.31396484375	467.1782836914062	-492.9154052734375	-2883.561767578125	742.578369140625	-518.6207275390625	-2838.947998046875	619.1644287109375	-500.9561157226562	-2471.004150390625	142.7923431396484	-215.7573089599609	-3047.37646484375	532.7655029296875	-507.0902099609375	-2918.50341796875	650.399658203125	-494.8296203613281	-2627.84912109375	718.8717041015625	-205.0806884765625	-3202.181884765625	120.6724166870117	-432.1077575683594	-2702.820556640625	698.6503295898438	-202.2413940429688	-2604.019287109375	621.9440307617188	-226.3435363769531	-2681.5869140625	605.3177490234375	-220.1020965576172	-2914.457763671875	582.906982421875	-499.4801940917969	-2640.616943359375	564.8814086914062	-222.2601623535156	-2995.68701171875	474.1108703613281	-506.8761901855469	-3070.677978515625	407.6340637207031	-499.8939208984375	-2596.0927734375	448.604248046875	-216.6854400634766	-3245.91748046875	169.6133728027344	-477.7347106933594	-2675.810791015625	438.0180053710938	-211.0559539794922	-3253.695556640625	350.8914489746094	-373.4177551269531	-2582.588623046875	348.0085144042969	-226.5895690917969	-2662.82470703125	341.3592834472656	-224.8146362304688	-3227.10986328125	311.6224670410156	-466.7808532714844	-2590.720703125	153.6225433349609	-256.8039855957031	-2405.754150390625	193.1755981445312	-263.6326599121094	-2638.9423828125	120.3628768920898	-320.8579711914062	-2608.804931640625	102.4944686889648	-349.0153503417969	-2627.47998046875	90.47115325927734	-296.4347534179688	-3275.935791015625	354.8831176757812	-425.2797241210938
4	0.015	-2685.358154296875	1532.534057617188	-513.5006713867188	-2735.6826171875	1511.9619140625	-216.9387969970703	-2731.30908203125	1061.518920898438	-511.9878845214844	-2725.360107421875	1053.40087890625	-215.0146789550781	-2681.944091796875	1007.50390625	-498.3941955566406	-3225.515869140625	371.6138000488281	-403.6336059570312	-2668.11328125	1005.689270019531	-244.4692993164062	-2828.327880859375	957.1278686523438	-515.9286499023438	-2799.1416015625	946.2932739257812	-199.5713195800781	-2827.158447265625	1100.899536132812	-366.1396789550781	-2785.17578125	713.1596069335938	-516.9012451171875	-3104.193359375	470.2423095703125	-493.6236267089844	-2864.13330078125	740.207763671875	-519.570068359375	-2819.643798828125	617.2980346679688	-500.642333984375	-2449.325927734375	144.3990478515625	-216.6429443359375	-3029.024169921875	534.1747436523438	-508.212158203125	-2898.677490234375	647.980224609375	-495.7439880371094	-2611.8154296875	715.0126953125	-203.9783630371094	-3190.681640625	126.3720245361328	-433.6205749511719	-2687.75927734375	696.013427734375	-201.4525451660156	-2589.668701171875	618.2706909179688	-226.0167083740234	-2668.090576171875	602.4664916992188	-220.1568145751953	-2894.783203125	580.861572265625	-501.162109375	-2625.630126953125	562.2508544921875	-222.1698455810547	-2978.69873046875	473.8086547851562	-507.942626953125	-3056.406494140625	410.1106262207031	-501.4083862304688	-2578.466796875	447.0448913574219	-217.89404296875	-3234.973388671875	175.5111541748047	-479.6717529296875	-2658.2080078125	436.0738525390625	-211.8856201171875	-3244.85498046875	355.0220031738281	-374.4331359863281	-2563.530517578125	347.0599060058594	-227.3954010009766	-2643.25927734375	338.8646850585938	-225.6230926513672	-3213.734375	316.9296264648438	-467.246826171875	-2568.941650390625	152.5127410888672	-258.5374450683594	-2385.34375	195.7031860351562	-264.5090026855469	-2616.06884765625	117.3607330322266	-322.2055053710938	-2583.547607421875	99.18484497070312	-347.6731262207031	-2604.606201171875	88.100341796875	-297.8510437011719	-3263.132568359375	360.993896484375	-425.8148498535156
